<?xml version="1.0" encoding="utf-8"?>
<!-- Generator: Adobe Illustrator 21.1.0, SVG Export Plug-In . SVG Version: 6.00 Build 0)  -->
<svg version="1.1" id="Layer_1" xmlns="http://www.w3.org/2000/svg" xmlns:xlink="http://www.w3.org/1999/xlink" x="0px" y="0px"
	 viewBox="0 0 500 500" style="enable-background:new 0 0 500 500;" xml:space="preserve">
<style type="text/css">
	.st0{fill:url(#SVGID_1_);}
</style>
<linearGradient id="SVGID_1_" gradientUnits="userSpaceOnUse" x1="500" y1="9.094947e-13" x2="5.115908e-13" y2="500">
	<stop  offset="0" style="stop-color:#43CEA2"/>
	<stop  offset="1" style="stop-color:#185A9D"/>
</linearGradient>
<path class="st0" d="M355.2,318.6c0,34.3-25.3,58.7-62.1,58.7H144.8v-117h148.3C329.9,260.3,355.2,284.3,355.2,318.6z M333.8,182.3
	c0-35.6-24.9-59.6-62.1-59.6H144.8V238h129.4C310.6,238,333.8,216.1,333.8,182.3z M500,0v500H0V0H500z M379.2,320.7
	c0-40.3-27-67.3-62.1-74.6c24-11.1,40.7-33,40.7-65.6c0-45.9-33.9-80.6-85.3-80.6H120.8v300h173.1
	C341.1,400,379.2,369.1,379.2,320.7z"/>
</svg>
