<?xml version="1.0" standalone="no"?>
<!DOCTYPE svg PUBLIC "-//W3C//DTD SVG 20010904//EN"
 "http://www.w3.org/TR/2001/REC-SVG-20010904/DTD/svg10.dtd">
<svg version="1.0" xmlns="http://www.w3.org/2000/svg"
 width="700.000000pt" height="700.000000pt" viewBox="0 0 700.000000 700.000000"
 preserveAspectRatio="xMidYMid meet">
<metadata>
Created by potrace 1.11, written by Peter Selinger 2001-2013
</metadata>
<g transform="translate(0.000000,700.000000) scale(0.100000,-0.100000)"
fill="#000000" stroke="none">
<path d="M0 3500 l0 -3500 3500 0 3500 0 0 3500 0 3500 -3500 0 -3500 0 0
-3500z m3825 2099 c228 -5 404 -44 580 -130 324 -159 532 -448 592 -824 17
-100 7 -344 -17 -438 -72 -282 -238 -493 -492 -627 l-46 -24 91 -27 c290 -83
518 -263 659 -519 13 -25 27 -54 31 -65 3 -11 13 -40 22 -65 41 -111 57 -198
60 -335 11 -448 -206 -817 -590 -1005 -130 -64 -233 -96 -375 -119 -107 -18
-200 -19 -1382 -20 l-1268 -1 0 2100 0 2099 42 3 c51 4 1904 1 2093 -3z"/>
<path d="M2029 5225 c0 -33 -1 -397 -2 -808 l-2 -748 990 4 c545 1 1001 6
1015 10 14 4 36 9 50 11 91 14 237 83 326 155 101 81 200 226 229 336 5 17 9
32 10 35 30 108 30 344 1 455 -29 106 -74 205 -131 284 -33 47 -161 162 -216
194 -74 43 -201 94 -256 103 -21 3 -41 8 -44 10 -20 12 -289 17 -1078 18
l-891 1 -1 -60z"/>
<path d="M2029 3300 c-3 -289 0 -1573 5 -1577 8 -8 2095 -7 2176 1 461 45 763
373 761 828 -2 339 -198 624 -513 742 -159 60 -141 59 -1335 60 l-1093 1 -1
-55z"/>
</g>
</svg>
