<svg xmlns="http://www.w3.org/2000/svg" viewBox="0 0 500 160"><path d="M103.6 50.2c-2.4-4.4-4.6-11.3-1.8-19.6l.6.2s.5-.1.2-.7l-.9-.3c-.7-1.5-3-6.4-2.8-11.2l27.4 22.2-22.7 9.4zm2.8 85.6v-.9l.1-.1h1.6l.1 1.1c-.7-.1-1.2-.1-1.8-.1m-.1-2.9l1.6-.1.1 1.1h-1.3c-.1-.2-.2-.3-.3-.4l-.1-.6zm0-1.6l1.5-.2.1.9-1.5.1-.1-.8zm-2.6 1v-.6l1.8-.3v.7l-1.8.2zm1.8.7v.5l-.3.3h-1.5v-.7l1.8-.1zm-1.8 2.6v-.9h1.7c0 .1.1.1.2.1v.9c-.7 0-1.3 0-1.9-.1m-.9-3.3l-1.8.1v-.4l1.9-.3v.6zm0 1.5h-1.5l-.3-.3v-.2l1.8-.1v.6zm0 1.8c-.6 0-1.2-.1-1.7-.1v-.7c.1 0 .1-.1.2-.2h1.6v1zM92.3 54.9l-.1-5.8c2.6.3 5.3 1.1 8.2 2.4l-8.1 3.4zm6.2 77.8v-.2l1.6-.2v.3l-1.6.1zm1.6.7v.1l-.3.3h-1.4v-.2l1.7-.2zm-1.6 1.9v-.7h1.4c.1.1.2.2.3.2v.5c-.6.1-1.1 0-1.7 0m-.9-.1l-4.5-.3v-1.7l4.5-.7v2.7zM91.9 21.7c1 .5 2.1 1 3.2 1.7 0 0 3.9 2.1 6.6 6.5L92 26.2l-.1-4.5zm37.2 110.1v1.8l-1.8.3c.4-.9 1.2-1.7 1.8-2.1m6.1-1v1.9l-5.2.7v-1.9l5.2-.7zm6-1v2l-5.2.7v-1.9l5.2-.8zm6.1-.9v2.1l-5.2.7v-2l5.2-.8zm5.4-.8v2.1l-4.5.6v-2.1l4.5-.6zm5.3-.8l-.5 1.9-.5.5-3.4.5V128l4.4-.7zm-24.1 25.5s8.4-4.4 12.3-7.9c0 0-5.7 7.3-12.3 7.9M90.4 25.6l-14.2-5.2c2-.8 7.2-2.1 14.2.6v4.6zm-.2 31.2l-6.2-.3c.1-.4.1-.7.2-1.1.6-1.5 1.7-4 2.9-6.6 1-.1 2-.1 3.1 0v8zm-.3 62.5C78.6 97 81.8 69.1 83.8 57.9l6.4.4-.3 61zm0 12.8l-3.2-10.9c1.1.2 2.2.6 3.3 1l-.1 9.9zm-1.7 2.4l-15.8-12.2c3.7-1.3 8.3-2.1 13.3-1.2l4 13.6c-.5-.1-1-.1-1.5-.2m-11-.9l-14.9-4.7 1.2-2c1.1-.8 3.9-2.8 7.9-4.3l15.2 11.7c-5.5-.4-9.4-.7-9.4-.7m-12 7.3s5.2 7.1 10 8.7c0 0-7.6-.3-10-8.7m-16.4-16.2c.2-.2.3-.3.4-.5.3-.8-.1-1-.1-1l-2.9-.9-2.3-4.5c4.9-1.2 12.6-2.2 20.1.2-.4 3.7-.6 6.4-.7 8l-1.7 2.6-12.8-3.9zm-10-4.7l.8-1c.7-.3 1.9-.6 3.3-1l2 3.9-6.1-1.9zm-25.7-7.9l1.3-1c3.7-1.1 16.8-4.2 26 2.1-.5 1.7-1 3.4-1.5 5.2l-1 1.3-24.8-7.6zm51.2-55.4l9.1.5c-7.3 8-23.5 27.8-32.1 53.2-.2-8 1.7-28.1 23-53.7m4.9-4c.4 1.1 1 2.2 1.6 3.3l-5.4-.2c1-.9 2.3-2 3.8-3.1M82 57.8c-10.4 19.1-15.1 39.6-17.3 53.3-1.8-9-1.5-25.7 10.6-53.7l6.7.4zm-6.1-1.6c.2-.4.3-.8.5-1.2 1-1.3 2.4-3 4-4.7 1.7-.6 3.6-1.1 5.7-1.3-1.1 2.5-2.1 4.9-2.7 6.3-.2.4-.5.8-.7 1.3l-6.8-.4zm2.7-5.1c-1.8 2.1-3.3 3.9-4.1 5.1l-3.1-.1c.7-.9 3.3-3.2 7.2-5M180.1 119l-1.1.2c-47.3-46.3-47-74.5-46.5-79.4l.3-.1c.6-.4.5-1.2.5-1.2-.7-.5-1.4 0-1.4 0l-4.7 2-28.2-23c.2-1.7.7-3.3 1.7-4.8l.5.2s.3.2.3-.4l-9.6-3.8V8c1.4-.8 2.8-.8 2.8-.8 1.7 0 4.1 1.7 4.1 1.7-.7-.6-.9-.9-.9-.9-.9-2.4 0-3.1 0-3.1-1 .6-3.2.1-3.2.1-1.3-.5-2.3-.3-2.9-.1v-.3c-.1-1.2-.6-1.1-.6-1.1-.7.1-.7 1.1-.7 1.1v3.8L80 4s-.5-.2-.4.5l.9.3C79 5.8 72.6 10.9 75 20l-.6-.2s-1-.3-.5.5l.9.3c-2.3 2.5-12.4 14.6-6.1 31.2-1.9 1.4-3.5 2.8-4.8 3.9l-3-.1s-.4-.1-.5.3c0 0 0 .6.5.6l1.9.1c-1.1 1-1.8 1.7-2.2 2.1-9.9 7.6-34 27.4-46.6 51.7l-1.9 1.4-2.9-.9c-1.5.3-.4 1.2-.4 1.2l24.7 8.1c-.5.4-.2 1-.2 1l27.4 11.1c.5 8.5 3.3 14 5.3 16.9.9.9 2.5 2.1 5.4 2.8h.2l73.5 4.6 6.1-.4 3.5-11.6-5.9.2.1-.4 4-.2-1.8-4.5c4-3.1 6.5-8.9 7-10.1.1-.1.1-.2.1-.2l.9-3.2-30.3 4.7s-2 1.4-2.6 3.1l-1.6 1.8c-3.4.4-9.2.4-15.7.1l-.4-4.9 71.7-10.5c1.2-.3 1.3-1.2 1.3-1.2-.1-.5-1.4-.3-1.4-.3m309.8-75.4v-4.2H477v-7.7h10.2v-4H477v-7.4h12.7v-4.1h-17.6v27.4h17.8zm-23.9-14h-10.3v4h5.7c0 4-2.7 6.4-5.8 6.4-5.4 0-6.5-5.5-6.5-10.4 0-4.3 1-6.2 1.9-7.4.8-1.1 2.3-2.3 4.7-2.3 4.5 0 5.5 3.9 5.7 5l4.3-.7c-.3-1.3-.7-3-2.3-4.9-2.4-2.9-5.3-3.5-7.8-3.5-8.8 0-11.7 8.2-11.7 14.1 0 3.2 1.1 14.1 11.1 14.1 2.8 0 5.3-.8 7.4-4.1l1.5 3.7h2.2v-14zm-25.1 14v-4.2h-12.8v-7.7h10.2v-4h-10.2v-7.4h12.7v-4.1h-17.6v27.4h17.7zm-21.7 0v-4.5h-11.6V16.2h-5.2v27.4h16.8zm-20.7 0v-4.5h-11.6V16.2h-5.2v27.4h16.8zm-27.3-13.8c0 3.9-.6 5.7-1.2 7-.8 1.6-2.7 3.2-5.1 3.2-5.7 0-6.2-6.8-6.2-10.1 0-4.9 1.1-10.2 6.3-10.2 1.1 0 3.5.2 4.9 3 1.2 2.7 1.3 6 1.3 7.1m5.3.1c0-7.3-3.8-14.1-11.5-14.1-7.6 0-11.7 6.6-11.7 14 0 6.2 2.9 14.2 11.5 14.2 7.2 0 11.7-5.7 11.7-14.1m-31 4.2c-.4 3.7-2.8 5.8-5.4 5.8-2.9 0-6-2.3-6-10.1 0-2.5.3-10 5.8-10 4.1 0 5.1 4 5.6 6.2l4.6-.5c-1-6-4.4-9.7-10.2-9.7-7.8 0-11.1 7-11.1 14.1 0 4.7 1.8 14.1 11 14.1 4.4 0 9.3-2.2 10.4-9.4l-4.7-.5zm-40.1 9.5V32.1l8.9-15.8h-4.8l-6.2 11.3-6.5-11.3h-6l9.3 15.8v11.5h5.3zm-31.2-23.5h5.9c1.1 0 4.1.5 4.1 3.7 0 2.4-1.6 4-4 4h-6v-7.7zm0 11.5h6.4c2.7 0 4.3 1.7 4.3 3.9 0 2.5-1.8 3.9-4.3 3.9h-6.4v-7.8zm-4.7 12h12c2.1 0 4.1-.2 6.2-2 1.4-1.2 2.2-3.5 2.2-5.5 0-1.2-.3-3-1.6-4.5-1.4-1.6-3.2-2-4.3-2.2 4.9-1.1 5-5.3 5-6.1 0-1.3-.3-3-1.5-4.5-2.1-2.6-5.3-2.6-7.4-2.6h-10.7v27.4zm-3.9 0v-4.5H254V16.2h-5.2v27.4h16.8zm-27.3-13.8c0 3.9-.6 5.7-1.2 7-.8 1.6-2.7 3.2-5.1 3.2-5.7 0-6.2-6.8-6.2-10.1 0-4.9 1.1-10.2 6.3-10.2 1.1 0 3.5.2 4.9 3 1.3 2.7 1.3 6 1.3 7.1m5.4.1c0-7.3-3.8-14.1-11.5-14.1-7.6 0-11.7 6.6-11.7 14 0 6.2 2.9 14.2 11.5 14.2 7.1 0 11.7-5.7 11.7-14.1m-31 4.2c-.4 3.7-2.8 5.8-5.4 5.8-2.9 0-6-2.3-6-10.1 0-2.5.3-10 5.8-10 4.1 0 5.1 4 5.6 6.2l4.6-.5c-1-6-4.4-9.7-10.2-9.7-7.8 0-11.1 7-11.1 14.1 0 4.7 1.8 14.1 11 14.1 4.3 0 9.3-2.2 10.4-9.4l-4.7-.5zm278.1 35.5c-.9-3.3-3.9-13.1-15.6-13.1-10.1 0-15.6 8.8-15.6 17.4 0 3.6 1 7.1 2.6 9.5 2.5 3.9 6 5.6 13.2 9.2 2.2 1 4.8 2.7 4.8 6.5 0 1.4-.5 6-5.8 6-4.1 0-6.1-2.3-7.5-8.4l-9.4 3.3c1 5.6 3.8 15.5 16.8 15.5 11.1 0 17.4-7.5 17.4-18.1 0-10.9-7.4-14.3-10.9-16.1-8.4-3.9-10.2-4.7-10.2-8.9 0-.9.3-5.6 5-5.6 2.5 0 5.2 1.1 6.5 6.7l8.7-3.9zm-54.3-2.3h18v-10h-29.8v57.3h29.8v-10.1h-18V90.2h13.8v-9.5h-13.8V67.3zm-29.4 47.3h11.8V57.3h-11.8v57.3zm-28.4-48.3h3.3c3.8 0 6.4 2 6.4 7.9 0 5.4-1.8 8.4-6.4 8.4h-3.3V66.3zm-11.5 48.3h11.5V92.1h3.7l6.4 22.5h12.4l-8.7-24.8c2.7-1.6 7.5-4.6 7.5-15.5 0-2.1 0-8.9-5.3-13.9-3-2.8-6.5-3.1-12.7-3.1h-14.8v57.3zM339 92.9l3.1-15.8c.7-3.5 1-6.7 1.4-9.1.3 5.2.7 7.3 1.2 9.6l3.2 15.3H339zm-.8-35.6L325 114.6h10.6l2.2-12.4h11.3l2.3 12.4h11.9l-13-57.3h-12.1zm-37.9 9h3.3c3.8 0 6.4 2 6.4 7.9 0 5.4-1.8 8.4-6.4 8.4h-3.3V66.3zm-11.6 48.3h11.5V92.1h3.7l6.4 22.5h12.4L314 89.8c2.7-1.6 7.5-4.6 7.5-15.5 0-2.1 0-8.9-5.3-13.9-3-2.8-6.5-3.1-12.7-3.1h-14.8v57.3zm-29.1-25h4.2c3.4 0 5 .2 6.3 2.3 1.2 2.1 1.2 4.9 1.2 5.4 0 6.4-2.7 7.7-7 7.7h-4.6V89.6zm0-23.1h4.3c4.6 0 6.4 3.1 6.4 7.3 0 2.4-.2 6.6-6.4 6.6h-4.3V66.5zm-11.4 48.1h17.7c3.4 0 9.5-.1 12.9-3.6 1.8-1.8 4.5-5.5 4.5-11.9 0-11.4-6.6-13.7-8.8-14.4 2.7-1.1 7.1-3.1 7.1-12.5 0-5.6-1.7-8.8-3.6-10.9-3.3-3.9-7.2-3.9-14.2-3.9h-15.6v57.2zm-17.8 0h11.8V57.3h-11.8v57.3zm-32.2 0h26.3V104H210V57.3h-11.8v57.3zM478 129.9v18.5h1.9v-15.8l7.7 15.8h2.2v-18.5h-1.9v14.6l-7.1-14.6H478zm-6.8 18.5h2.2v-18.5h-2.2v18.5zm-12-18.5v18.5h9.3v-1.9h-7v-16.6h-2.3zm-10.5 1.4c1.8 0 2.6.8 3.2 2 .8 1.4 1.1 3.7 1.1 5.8 0 1.9-.2 4.2-1.1 5.8-.6 1.2-1.5 2-3.1 2s-2.5-.6-3.2-2c-.8-1.5-1.1-3.7-1.1-5.8 0-2 .2-4.3 1.1-5.8.6-1.2 1.5-2 3.1-2m0-1.8c-5.7 0-6.6 5.8-6.6 9.7 0 3.7.9 9.6 6.6 9.6 5.5 0 6.5-5.6 6.5-9.6 0-4.2-1-9.7-6.5-9.7m-60.3 2.2c1.4 0 3.4.5 3.4 3.2 0 2-1 3.6-3.6 3.6h-2.8v-6.7h3zm-5.2-1.8v18.5h2.2v-8.1h3.6l3.1 8.1h2.4l-3.5-8.6c.8-.4 3-1.5 3-4.9 0-2-.9-3.4-1.8-4-1.3-1-3.4-1-3.7-1h-5.3zm-13.6 0v18.5h10.3v-1.9h-8v-6.8h6.2v-1.9h-6.2v-6.1h7.8v-1.9h-10.1zm-12.1 0v18.5h9.3v-1.9h-7v-16.6h-2.3zm-12.1 0v18.5h9.3v-1.9h-7v-16.6h-2.3zm-6.8 18.5h2.2v-18.5h-2.2v18.5zm-19.7 0h1.9v-16.1l4.7 16.1h1.6l4.8-16v16h2.1v-18.5h-3.2l-4.4 14.9-4.4-14.9h-3.2v18.5zm-54.4-16.7c1.4 0 3.4.5 3.4 3.2 0 2-1 3.6-3.6 3.6h-2.8v-6.7h3zm-5.2-1.8v18.5h2.2v-8.1h3.6l3.1 8.1h2.4l-3.5-8.6c.8-.4 3-1.5 3-4.9 0-2-.9-3.4-1.8-4-1.3-1-3.4-1-3.7-1h-5.3zm-13.5 0v18.5h10.3v-1.9h-8v-6.8h6.2v-1.9H248v-6.1h7.8v-1.9h-10zm-12.1 0v18.5h9.3v-1.9h-7v-16.6h-2.3zm-14.5 0l4.2 8.8-4.8 9.7h2.1l4-7.9 3.5 7.9h2.6l-4.8-10.1 4.2-8.4h-2l-3.5 6.8-3-6.8h-2.5zm-5.8 18.5h2.2v-18.5h-2.2v18.5zm-13-8.8h2.4c1.2 0 2.1.1 3 .7 1.1.8 1.3 2.1 1.3 2.8 0 2.5-1.6 3.4-3.9 3.4h-2.9v-6.9zm0-7.9h2.8c1 0 3.3 0 3.3 2.9s-2.2 3.1-3.6 3.1h-2.5v-6zm-2.2 16.7h5.2c4.6 0 6.2-2.2 6.2-5.2 0-3.7-2.6-4.4-3.5-4.7.8-.3 2.8-1.1 2.8-4.1 0-.6-.1-2.1-1.1-3.2-1.1-1.3-2.9-1.3-4.5-1.3h-5v18.5zm94.8 5.7h1.8v-26.6H293v26.6zm126.7 0h1.8v-26.6h-1.8v26.6z" fill="#fff"/></svg>