<?xml version="1.0" encoding="utf-8"?>
<!-- Generator: Adobe Illustrator 22.1.0, SVG Export Plug-In . SVG Version: 6.00 Build 0)  -->
<svg version="1.1" id="Layer_1" xmlns="http://www.w3.org/2000/svg" xmlns:xlink="http://www.w3.org/1999/xlink" x="0px" y="0px"
	 viewBox="0 0 500 160" style="enable-background:new 0 0 500 160;" xml:space="preserve">
<style type="text/css">
	.st0{fill:#FFFFFF;}
</style>
<path class="st0" d="M103.6,50.2c-2.4-4.4-4.6-11.3-1.8-19.6l0.6,0.2c0,0,0.5-0.1,0.2-0.7l-0.9-0.3c-0.7-1.5-3-6.4-2.8-11.2
	l27.4,22.2L103.6,50.2z M106.4,135.8l0-0.9c0,0,0.1-0.1,0.1-0.1l1.6,0l0.1,1.1C107.5,135.8,107,135.8,106.4,135.8 M106.3,132.9
	l1.6-0.1l0.1,1.1l-1.3,0c-0.1-0.2-0.2-0.3-0.3-0.4L106.3,132.9z M106.3,131.3l1.5-0.2l0.1,0.9l-1.5,0.1L106.3,131.3z M103.7,132.3
	v-0.6l1.8-0.3l0,0.7L103.7,132.3z M105.5,133l0,0.5c-0.1,0.1-0.2,0.2-0.3,0.3l-1.5,0v-0.7L105.5,133z M103.7,135.6v-0.9l1.7,0
	c0,0.1,0.1,0.1,0.2,0.1l0,0.9C104.9,135.7,104.3,135.7,103.7,135.6 M102.8,132.3l-1.8,0.1l0-0.4l1.9-0.3V132.3z M102.8,133.8l-1.5,0
	c-0.1-0.1-0.2-0.2-0.3-0.3l0-0.2l1.8-0.1V133.8z M102.8,135.6c-0.6,0-1.2-0.1-1.7-0.1l0-0.7c0.1,0,0.1-0.1,0.2-0.2l1.6,0V135.6z
	 M92.3,54.9l-0.1-5.8c2.6,0.3,5.3,1.1,8.2,2.4L92.3,54.9z M98.5,132.7v-0.2l1.6-0.2l0,0.3L98.5,132.7z M100.1,133.4l0,0.1
	c-0.1,0.1-0.2,0.2-0.3,0.3l-1.4,0v-0.2L100.1,133.4z M98.5,135.3v-0.7l1.4,0c0.1,0.1,0.2,0.2,0.3,0.2l0,0.5
	C99.6,135.4,99.1,135.3,98.5,135.3 M97.6,135.2c-1.5-0.1-3-0.2-4.5-0.3l0-1.7l4.5-0.7V135.2z M91.9,21.7c1,0.5,2.1,1,3.2,1.7
	c0,0,3.9,2.1,6.6,6.5L92,26.2L91.9,21.7z M129.1,131.8l0,1.8l-1.8,0.3C127.7,133,128.5,132.2,129.1,131.8 M135.2,130.8l0,1.9
	l-5.2,0.7l0-1.9L135.2,130.8z M141.2,129.8l0,2l-5.2,0.7l0-1.9L141.2,129.8z M147.3,128.9l0,2.1l-5.2,0.7l0-2L147.3,128.9z
	 M152.7,128.1l0,2.1l-4.5,0.6l0-2.1L152.7,128.1z M158,127.3l-0.5,1.9l-0.5,0.5l-3.4,0.5l0-2.2L158,127.3z M133.9,152.8
	c0,0,8.4-4.4,12.3-7.9C146.2,144.9,140.5,152.2,133.9,152.8 M90.4,25.6l-14.2-5.2c2-0.8,7.2-2.1,14.2,0.6L90.4,25.6z M90.2,56.8
	l-6.2-0.3c0.1-0.4,0.1-0.7,0.2-1.1c0.6-1.5,1.7-4,2.9-6.6c1-0.1,2-0.1,3.1,0L90.2,56.8z M89.9,119.3C78.6,97,81.8,69.1,83.8,57.9
	l6.4,0.4L89.9,119.3z M89.9,132.1l-3.2-10.9c1.1,0.2,2.2,0.6,3.3,1L89.9,132.1z M88.2,134.5l-15.8-12.2c3.7-1.3,8.3-2.1,13.3-1.2
	l4,13.6C89.2,134.6,88.7,134.6,88.2,134.5 M77.2,133.6l-14.9-4.7l1.2-2c1.1-0.8,3.9-2.8,7.9-4.3l15.2,11.7
	C81.1,133.9,77.2,133.6,77.2,133.6 M65.2,140.9c0,0,5.2,7.1,10,8.7C75.2,149.6,67.6,149.3,65.2,140.9 M48.8,124.7
	c0.2-0.2,0.3-0.3,0.4-0.5c0.3-0.8-0.1-1-0.1-1l-2.9-0.9l-2.3-4.5c4.9-1.2,12.6-2.2,20.1,0.2c-0.4,3.7-0.6,6.4-0.7,8l-1.7,2.6
	L48.8,124.7z M38.8,120l0.8-1c0.7-0.3,1.9-0.6,3.3-1l2,3.9L38.8,120z M13.1,112.1l1.3-1c3.7-1.1,16.8-4.2,26,2.1
	c-0.5,1.7-1,3.4-1.5,5.2l-1,1.3L13.1,112.1z M64.3,56.7l9.1,0.5c-7.3,8-23.5,27.8-32.1,53.2C41.1,102.4,43,82.3,64.3,56.7
	 M69.2,52.7c0.4,1.1,1,2.2,1.6,3.3l-5.4-0.2C66.4,54.9,67.7,53.8,69.2,52.7 M82,57.8c-10.4,19.1-15.1,39.6-17.3,53.3
	c-1.8-9-1.5-25.7,10.6-53.7L82,57.8z M75.9,56.2c0.2-0.4,0.3-0.8,0.5-1.2c1-1.3,2.4-3,4-4.7c1.7-0.6,3.6-1.1,5.7-1.3
	c-1.1,2.5-2.1,4.9-2.7,6.3c-0.2,0.4-0.5,0.8-0.7,1.3L75.9,56.2z M78.6,51.1c-1.8,2.1-3.3,3.9-4.1,5.1l-3.1-0.1
	C72.1,55.2,74.7,52.9,78.6,51.1 M180.1,119l-1.1,0.2c-47.3-46.3-47-74.5-46.5-79.4l0.3-0.1c0.6-0.4,0.5-1.2,0.5-1.2
	c-0.7-0.5-1.4,0-1.4,0l-4.7,2L99,17.5c0.2-1.7,0.7-3.3,1.7-4.8l0.5,0.2c0,0,0.3,0.2,0.3-0.4l-9.6-3.8l0-0.7c1.4-0.8,2.8-0.8,2.8-0.8
	c1.7,0,4.1,1.7,4.1,1.7c-0.7-0.6-0.9-0.9-0.9-0.9c-0.9-2.4,0-3.1,0-3.1c-1,0.6-3.2,0.1-3.2,0.1c-1.3-0.5-2.3-0.3-2.9-0.1l0-0.3
	c-0.1-1.2-0.6-1.1-0.6-1.1c-0.7,0.1-0.7,1.1-0.7,1.1l0,3.8L80,4c0,0-0.5-0.2-0.4,0.5l0.9,0.3C79,5.8,72.6,10.9,75,20l-0.6-0.2
	c0,0-1-0.3-0.5,0.5l0.9,0.3c-2.3,2.5-12.4,14.6-6.1,31.2c-1.9,1.4-3.5,2.8-4.8,3.9l-3-0.1c0,0-0.4-0.1-0.5,0.3c0,0,0,0.6,0.5,0.6
	l1.9,0.1c-1.1,1-1.8,1.7-2.2,2.1C50.7,66.3,26.6,86.1,14,110.4l-1.9,1.4l-2.9-0.9c-1.5,0.3-0.4,1.2-0.4,1.2l24.7,8.1
	c-0.5,0.4-0.2,1-0.2,1l27.4,11.1c0.5,8.5,3.3,14,5.3,16.9c0.9,0.9,2.5,2.1,5.4,2.8c0.1,0,0.1,0,0.2,0l73.5,4.6l0,0l6.1-0.4l3.5-11.6
	l-5.9,0.2l0.1-0.4l4-0.2l-1.8-4.5c4-3.1,6.5-8.9,7-10.1l0,0l0,0c0.1-0.1,0.1-0.2,0.1-0.2l0,0l0.9-3.2l-30.3,4.7c0,0-2,1.4-2.6,3.1h0
	l-1.6,1.8c-3.4,0.4-9.2,0.4-15.7,0.1l-0.4-4.9l71.7-10.5c1.2-0.3,1.3-1.2,1.3-1.2C181.4,118.8,180.1,119,180.1,119 M489.9,43.6v-4.2
	H477v-7.7h10.2v-4H477v-7.4h12.7v-4.1h-17.6v27.4H489.9z M466,29.6h-10.3v4h5.7c0,4-2.7,6.4-5.8,6.4c-5.4,0-6.5-5.5-6.5-10.4
	c0-4.3,1-6.2,1.9-7.4c0.8-1.1,2.3-2.3,4.7-2.3c4.5,0,5.5,3.9,5.7,5l4.3-0.7c-0.3-1.3-0.7-3-2.3-4.9c-2.4-2.9-5.3-3.5-7.8-3.5
	c-8.8,0-11.7,8.2-11.7,14.1c0,3.2,1.1,14.1,11.1,14.1c2.8,0,5.3-0.8,7.4-4.1l1.5,3.7h2.2V29.6z M440.9,43.6v-4.2h-12.8v-7.7h10.2v-4
	h-10.2v-7.4h12.7v-4.1h-17.6v27.4H440.9z M419.2,43.6v-4.5h-11.6V16.2h-5.2v27.4H419.2z M398.5,43.6v-4.5h-11.6V16.2h-5.2v27.4
	H398.5z M371.2,29.8c0,3.9-0.6,5.7-1.2,7c-0.8,1.6-2.7,3.2-5.1,3.2c-5.7,0-6.2-6.8-6.2-10.1c0-4.9,1.1-10.2,6.3-10.2
	c1.1,0,3.5,0.2,4.9,3C371.1,25.4,371.2,28.7,371.2,29.8 M376.5,29.9c0-7.3-3.8-14.1-11.5-14.1c-7.6,0-11.7,6.6-11.7,14
	c0,6.2,2.9,14.2,11.5,14.2C372,44,376.5,38.3,376.5,29.9 M345.5,34.1c-0.4,3.7-2.8,5.8-5.4,5.8c-2.9,0-6-2.3-6-10.1
	c0-2.5,0.3-10,5.8-10c4.1,0,5.1,4,5.6,6.2l4.6-0.5c-1-6-4.4-9.7-10.2-9.7c-7.8,0-11.1,7-11.1,14.1c0,4.7,1.8,14.1,11,14.1
	c4.4,0,9.3-2.2,10.4-9.4L345.5,34.1z M305.4,43.6V32.1l8.9-15.8h-4.8l-6.2,11.3l-6.5-11.3h-6l9.3,15.8v11.5H305.4z M274.2,20.1h5.9
	c1.1,0,4.1,0.5,4.1,3.7c0,2.4-1.6,4-4,4h-6V20.1z M274.2,31.6h6.4c2.7,0,4.3,1.7,4.3,3.9c0,2.5-1.8,3.9-4.3,3.9h-6.4V31.6z
	 M269.5,43.6h12c2.1,0,4.1-0.2,6.2-2c1.4-1.2,2.2-3.5,2.2-5.5c0-1.2-0.3-3-1.6-4.5c-1.4-1.6-3.2-2-4.3-2.2c4.9-1.1,5-5.3,5-6.1
	c0-1.3-0.3-3-1.5-4.5c-2.1-2.6-5.3-2.6-7.4-2.6h-10.7V43.6z M265.6,43.6v-4.5H254V16.2h-5.2v27.4H265.6z M238.3,29.8
	c0,3.9-0.6,5.7-1.2,7c-0.8,1.6-2.7,3.2-5.1,3.2c-5.7,0-6.2-6.8-6.2-10.1c0-4.9,1.1-10.2,6.3-10.2c1.1,0,3.5,0.2,4.9,3
	C238.3,25.4,238.3,28.7,238.3,29.8 M243.7,29.9c0-7.3-3.8-14.1-11.5-14.1c-7.6,0-11.7,6.6-11.7,14c0,6.2,2.9,14.2,11.5,14.2
	C239.1,44,243.7,38.3,243.7,29.9 M212.7,34.1c-0.4,3.7-2.8,5.8-5.4,5.8c-2.9,0-6-2.3-6-10.1c0-2.5,0.3-10,5.8-10
	c4.1,0,5.1,4,5.6,6.2l4.6-0.5c-1-6-4.4-9.7-10.2-9.7c-7.8,0-11.1,7-11.1,14.1c0,4.7,1.8,14.1,11,14.1c4.3,0,9.3-2.2,10.4-9.4
	L212.7,34.1z M490.8,69.6c-0.9-3.3-3.9-13.1-15.6-13.1c-10.1,0-15.6,8.8-15.6,17.4c0,3.6,1,7.1,2.6,9.5c2.5,3.9,6,5.6,13.2,9.2
	c2.2,1,4.8,2.7,4.8,6.5c0,1.4-0.5,6-5.8,6c-4.1,0-6.1-2.3-7.5-8.4l-9.4,3.3c1,5.6,3.8,15.5,16.8,15.5c11.1,0,17.4-7.5,17.4-18.1
	c0-10.9-7.4-14.3-10.9-16.1c-8.4-3.9-10.2-4.7-10.2-8.9c0-0.9,0.3-5.6,5-5.6c2.5,0,5.2,1.1,6.5,6.7L490.8,69.6z M436.5,67.3h18v-10
	h-29.8v57.3h29.8v-10.1h-18V90.2h13.8v-9.5h-13.8V67.3z M407.1,114.6h11.8V57.3h-11.8V114.6z M378.7,66.3h3.3c3.8,0,6.4,2,6.4,7.9
	c0,5.4-1.8,8.4-6.4,8.4h-3.3V66.3z M367.2,114.6h11.5V92.1h3.7l6.4,22.5h12.4l-8.7-24.8c2.7-1.6,7.5-4.6,7.5-15.5
	c0-2.1,0-8.9-5.3-13.9c-3-2.8-6.5-3.1-12.7-3.1h-14.8V114.6z M339,92.9l3.1-15.8c0.7-3.5,1-6.7,1.4-9.1c0.3,5.2,0.7,7.3,1.2,9.6
	l3.2,15.3H339z M338.2,57.3L325,114.6h10.6l2.2-12.4h11.3l2.3,12.4h11.9l-13-57.3H338.2z M300.3,66.3h3.3c3.8,0,6.4,2,6.4,7.9
	c0,5.4-1.8,8.4-6.4,8.4h-3.3V66.3z M288.7,114.6h11.5V92.1h3.7l6.4,22.5h12.4l-8.7-24.8c2.7-1.6,7.5-4.6,7.5-15.5
	c0-2.1,0-8.9-5.3-13.9c-3-2.8-6.5-3.1-12.7-3.1h-14.8V114.6z M259.6,89.6h4.2c3.4,0,5,0.2,6.3,2.3c1.2,2.1,1.2,4.9,1.2,5.4
	c0,6.4-2.7,7.7-7,7.7h-4.6V89.6z M259.6,66.5h4.3c4.6,0,6.4,3.1,6.4,7.3c0,2.4-0.2,6.6-6.4,6.6h-4.3V66.5z M248.2,114.6h17.7
	c3.4,0,9.5-0.1,12.9-3.6c1.8-1.8,4.5-5.5,4.5-11.9c0-11.4-6.6-13.7-8.8-14.4c2.7-1.1,7.1-3.1,7.1-12.5c0-5.6-1.7-8.8-3.6-10.9
	c-3.3-3.9-7.2-3.9-14.2-3.9h-15.6V114.6z M230.4,114.6h11.8V57.3h-11.8V114.6z M198.2,114.6h26.3V104H210V57.3h-11.8V114.6z
	 M478,129.9v18.5h1.9v-15.8l7.7,15.8h2.2v-18.5h-1.9v14.6l-7.1-14.6H478z M471.2,148.4h2.2v-18.5h-2.2V148.4z M459.2,129.9v18.5h9.3
	v-1.9h-7v-16.6H459.2z M448.7,131.3c1.8,0,2.6,0.8,3.2,2c0.8,1.4,1.1,3.7,1.1,5.8c0,1.9-0.2,4.2-1.1,5.8c-0.6,1.2-1.5,2-3.1,2
	c-1.6,0-2.5-0.6-3.2-2c-0.8-1.5-1.1-3.7-1.1-5.8c0-2,0.2-4.3,1.1-5.8C446.2,132.1,447.1,131.3,448.7,131.3 M448.7,129.5
	c-5.7,0-6.6,5.8-6.6,9.7c0,3.7,0.9,9.6,6.6,9.6c5.5,0,6.5-5.6,6.5-9.6C455.2,135,454.2,129.5,448.7,129.5 M388.4,131.7
	c1.4,0,3.4,0.5,3.4,3.2c0,2-1,3.6-3.6,3.6h-2.8v-6.7H388.4z M383.2,129.9v18.5h2.2v-8.1h3.6l3.1,8.1h2.4l-3.5-8.6
	c0.8-0.4,3-1.5,3-4.9c0-2-0.9-3.4-1.8-4c-1.3-1-3.4-1-3.7-1H383.2z M369.6,129.9v18.5h10.3v-1.9h-8v-6.8h6.2v-1.9h-6.2v-6.1h7.8
	v-1.9H369.6z M357.5,129.9v18.5h9.3v-1.9h-7v-16.6H357.5z M345.4,129.9v18.5h9.3v-1.9h-7v-16.6H345.4z M338.6,148.4h2.2v-18.5h-2.2
	V148.4z M318.9,148.4h1.9v-16.1l4.7,16.1h1.6l4.8-16v16h2.1v-18.5h-3.2l-4.4,14.9l-4.4-14.9h-3.2V148.4z M264.5,131.7
	c1.4,0,3.4,0.5,3.4,3.2c0,2-1,3.6-3.6,3.6h-2.8v-6.7H264.5z M259.3,129.9v18.5h2.2v-8.1h3.6l3.1,8.1h2.4l-3.5-8.6
	c0.8-0.4,3-1.5,3-4.9c0-2-0.9-3.4-1.8-4c-1.3-1-3.4-1-3.7-1H259.3z M245.8,129.9v18.5h10.3v-1.9h-8v-6.8h6.2v-1.9H248v-6.1h7.8v-1.9
	H245.8z M233.7,129.9v18.5h9.3v-1.9h-7v-16.6H233.7z M219.2,129.9l4.2,8.8l-4.8,9.7h2.1l4-7.9l3.5,7.9h2.6l-4.8-10.1l4.2-8.4h-2
	l-3.5,6.8l-3-6.8H219.2z M213.4,148.4h2.2v-18.5h-2.2V148.4z M200.4,139.6h2.4c1.2,0,2.1,0.1,3,0.7c1.1,0.8,1.3,2.1,1.3,2.8
	c0,2.5-1.6,3.4-3.9,3.4h-2.9V139.6z M200.4,131.7h2.8c1,0,3.3,0,3.3,2.9c0,2.9-2.2,3.1-3.6,3.1h-2.5V131.7z M198.2,148.4h5.2
	c4.6,0,6.2-2.2,6.2-5.2c0-3.7-2.6-4.4-3.5-4.7c0.8-0.3,2.8-1.1,2.8-4.1c0-0.6-0.1-2.1-1.1-3.2c-1.1-1.3-2.9-1.3-4.5-1.3h-5V148.4z
	 M293,154.1h1.8v-26.6H293V154.1z M419.7,154.1h1.8v-26.6h-1.8V154.1z"/>
</svg>
